<?xml version="1.0" standalone="yes"?>

<svg version="1.1" viewBox="0.0 0.0 440.742782152231 434.18897637795277" fill="none" stroke="none" stroke-linecap="square" stroke-miterlimit="10" xmlns="http://www.w3.org/2000/svg" xmlns:xlink="http://www.w3.org/1999/xlink"><clipPath id="p.0"><path d="m0 0l440.74277 0l0 434.18896l-440.74277 0l0 -434.18896z" clip-rule="nonzero"></path></clipPath><g clip-path="url(#p.0)"><path fill="#000000" fill-opacity="0.0" d="m0 0l440.74277 0l0 434.18896l-440.74277 0z" fill-rule="nonzero"></path><path fill="#000000" fill-opacity="0.0" d="m14.919948 13.15978l411.55905 0l0 408.063l-411.55905 0z" fill-rule="nonzero"></path><path stroke="#434343" stroke-width="8.0" stroke-linejoin="round" stroke-linecap="butt" d="m14.919948 13.15978l411.55905 0l0 408.063l-411.55905 0z" fill-rule="nonzero"></path><path fill="#000000" fill-opacity="0.0" d="m27.015749 0l387.3701 0l0 353.82675l-387.3701 0z" fill-rule="nonzero"></path><path fill="#434343" d="m178.58151 124.64688q2.71875 -3.71875 5.9375 -5.578125q3.21875 -1.859375 6.9375 -1.859375q6.4375 0 10.515625 4.4375q4.078125 4.421875 4.078125 15.015625l0 24.890625q0 10.59375 -4.078125 15.09375q-4.078125 4.5 -10.515625 4.5q-5.859375 0 -9.4375 -3.28125q-3.578125 -3.296875 -5.296875 -12.3125q-1.0 -6.0 -4.0 -9.296875q-5.875 -6.4375 -16.390625 -10.296875q-10.515625 -3.859375 -21.09375 -3.859375q-13.15625 0 -24.1875 5.71875q-11.015625 5.71875 -19.453125 18.59375q-8.4375 12.875 -8.4375 30.625l0 19.03125q0 21.171875 15.375 35.34375q15.390625 14.15625 42.703125 14.15625q16.3125 0 27.625 -4.4375q6.578125 -2.578125 14.015625 -10.15625q4.578125 -4.578125 7.15625 -5.9375q2.578125 -1.359375 5.859375 -1.359375q5.875 0 10.296875 4.4375q4.4375 4.421875 4.4375 10.4375q0 6.015625 -6.0 12.875q-8.734375 10.015625 -22.46875 15.734375q-18.453125 7.734375 -40.765625 7.734375q-26.046875 0 -46.9375 -10.734375q-16.875 -8.578125 -28.75 -27.109375q-11.875 -18.53125 -11.875 -40.421875l0 -19.890625q0 -22.890625 10.65625 -42.703125q10.65625 -19.8125 29.546875 -30.53125q18.890625 -10.734375 40.0625 -10.734375q12.734375 0 23.8125 2.9375q11.09375 2.921875 20.671875 8.9375zm99.77554 -19.609375l0 62.53125q9.15625 -5.4375 18.515625 -8.078125q9.375 -2.65625 18.96875 -2.65625q15.15625 0 27.03125 5.15625q11.875 5.140625 19.671875 16.234375q7.796875 11.078125 7.796875 27.96875l0 55.078125q11.171875 0 14.59375 2.140625q6.875 4.4375 6.875 12.59375q0 6.4375 -4.4375 10.515625q-4.4375 4.078125 -15.015625 4.078125l-33.484375 0q-10.4375 0 -14.953125 -4.078125q-4.5 -4.078125 -4.5 -10.65625q0 -8.015625 6.859375 -12.453125q3.578125 -2.28125 14.59375 -2.140625l0 -53.078125q0 -11.296875 -5.140625 -15.875q-6.734375 -6.15625 -19.890625 -6.15625q-9.734375 0 -17.25 3.796875q-7.5 3.78125 -20.234375 16.375l0 54.9375q11.296875 0 14.59375 2.140625q7.015625 4.4375 7.015625 12.59375q0 6.4375 -4.515625 10.515625q-4.5 4.078125 -15.09375 4.078125l-33.32814 0q-10.59375 0 -15.109375 -4.078125q-4.5 -4.078125 -4.5 -10.65625q0 -8.015625 7.015625 -12.453125q3.4375 -2.28125 14.59375 -2.140625l0 -126.90625l-5.015625 0q-10.578125 0 -15.09375 -4.078125q-4.5 -4.078125 -4.5 -10.65625q0 -6.4375 4.5 -10.515625q4.515625 -4.078125 15.09375 -4.078125l34.343765 0z" fill-rule="nonzero"></path><path fill="#000000" fill-opacity="0.0" d="m14.919948 13.15978l127.46458 0l0 55.401577l-127.46458 0z" fill-rule="nonzero"></path><path fill="#434343" d="m39.66995 60.559776l-5.5 0l0 -20.6875q-3.000002 2.8125 -7.078127 4.15625l0 -4.96875q2.140625 -0.703125 4.65625 -2.671875q2.531252 -1.96875 3.468752 -4.578125l4.453125 0l0 28.75zm17.480469 -28.75q4.15625 0 6.5 2.96875q2.7968712 3.515625 2.7968712 11.65625q0 8.125 -2.8124962 11.6875q-2.328125 2.921875 -6.484375 2.921875q-4.1875 0 -6.75 -3.203125q-2.546875 -3.21875 -2.546875 -11.46875q0 -8.078125 2.8125 -11.640625q2.3125 -2.921875 6.484375 -2.921875zm0 4.546875q-1.0 0 -1.78125 0.640625q-0.78125 0.625 -1.21875 2.265625q-0.5625 2.140625 -0.5625 7.171875q0 5.046875 0.5 6.9375q0.515625 1.875 1.28125 2.5q0.78125 0.625 1.78125 0.625q0.984375 0 1.765625 -0.625q0.78125 -0.640625 1.21875 -2.28125q0.5625 -2.109375 0.5625 -7.15625q0 -5.03125 -0.515625 -6.921875q-0.5 -1.890625 -1.28125 -2.515625q-0.765625 -0.640625 -1.75 -0.640625zm13.042965 16.84375l5.46875 -0.578125q0.234375 1.859375 1.375 2.953125q1.15625 1.078125 2.671875 1.078125q1.71875 0 2.90625 -1.390625q1.1875 -1.40625 1.1875 -4.21875q0 -2.640625 -1.1875 -3.953125q-1.171875 -1.3125 -3.0625 -1.3125q-2.375 0 -4.25 2.078125l-4.453125 -0.640625l2.8125 -14.90625l14.515625 0l0 5.140625l-10.34375 0l-0.859375 4.859375q1.828125 -0.90625 3.75 -0.90625q3.640625 0 6.171875 2.65625q2.546875 2.65625 2.546875 6.890625q0 3.53125 -2.046875 6.3125q-2.796875 3.78125 -7.75 3.78125q-3.96875 0 -6.46875 -2.125q-2.5 -2.125 -2.984375 -5.71875z" fill-rule="nonzero"></path><path fill="#000000" fill-opacity="0.0" d="m37.23622 316.30185l366.92914 0l0 93.79526l-366.92914 0z" fill-rule="nonzero"></path><path fill="#434343" d="m157.87573 346.18057l2.75 0.703125q-0.859375 3.375 -3.109375 5.15625q-2.25 1.78125 -5.484375 1.78125q-3.359375 0 -5.46875 -1.359375q-2.09375 -1.375 -3.203125 -3.96875q-1.09375 -2.59375 -1.09375 -5.5625q0 -3.25 1.234375 -5.65625q1.25 -2.421875 3.53125 -3.671875q2.296875 -1.25 5.046875 -1.25q3.109375 0 5.234375 1.59375q2.125 1.578125 2.953125 4.453125l-2.703125 0.640625q-0.71875 -2.265625 -2.09375 -3.296875q-1.375 -1.046875 -3.453125 -1.046875q-2.390625 0 -4.0 1.15625q-1.609375 1.140625 -2.265625 3.078125q-0.640625 1.921875 -0.640625 3.984375q0 2.640625 0.765625 4.625q0.765625 1.96875 2.390625 2.953125q1.640625 0.96875 3.53125 0.96875q2.3125 0 3.90625 -1.328125q1.609375 -1.328125 2.171875 -3.953125zm6.02359 7.28125l0 -15.03125l2.28125 0l0 2.265625q0.890625 -1.59375 1.625 -2.09375q0.75 -0.515625 1.640625 -0.515625q1.28125 0 2.609375 0.8125l-0.875 2.375q-0.9375 -0.5625 -1.859375 -0.5625q-0.84375 0 -1.515625 0.515625q-0.65625 0.5 -0.9375 1.390625q-0.421875 1.359375 -0.421875 2.96875l0 7.875l-2.546875 0zm20.078995 -4.84375l2.640625 0.328125q-0.625 2.3125 -2.3125 3.59375q-1.6875 1.265625 -4.296875 1.265625q-3.3125 0 -5.25 -2.03125q-1.921875 -2.03125 -1.921875 -5.703125q0 -3.796875 1.953125 -5.890625q1.953125 -2.09375 5.0625 -2.09375q3.03125 0 4.9375 2.0625q1.90625 2.046875 1.90625 5.765625q0 0.21875 -0.015625 0.671875l-11.203125 0q0.140625 2.484375 1.390625 3.8125q1.265625 1.3125 3.140625 1.3125q1.40625 0 2.390625 -0.734375q1.0 -0.75 1.578125 -2.359375zm-8.359375 -4.125l8.390625 0q-0.171875 -1.890625 -0.96875 -2.84375q-1.21875 -1.46875 -3.15625 -1.46875q-1.75 0 -2.953125 1.171875q-1.1875 1.171875 -1.3125 3.140625zm24.185913 7.109375q-1.40625 1.203125 -2.71875 1.703125q-1.3125 0.5 -2.8125 0.5q-2.484375 0 -3.8125 -1.203125q-1.328125 -1.21875 -1.328125 -3.109375q0 -1.09375 0.5 -2.0q0.5 -0.921875 1.3125 -1.46875q0.828125 -0.5625 1.84375 -0.84375q0.75 -0.203125 2.265625 -0.390625q3.078125 -0.359375 4.546875 -0.875q0.015625 -0.515625 0.015625 -0.65625q0 -1.5625 -0.734375 -2.203125q-0.96875 -0.859375 -2.890625 -0.859375q-1.796875 0 -2.65625 0.625q-0.859375 0.625 -1.265625 2.234375l-2.5 -0.34375q0.34375 -1.59375 1.125 -2.578125q0.78125 -0.984375 2.25 -1.515625q1.46875 -0.53125 3.40625 -0.53125q1.9375 0 3.140625 0.453125q1.203125 0.453125 1.765625 1.140625q0.5625 0.6875 0.796875 1.734375q0.125 0.640625 0.125 2.34375l0 3.40625q0 3.546875 0.15625 4.5q0.171875 0.9375 0.640625 1.796875l-2.65625 0q-0.390625 -0.796875 -0.515625 -1.859375zm-0.203125 -5.6875q-1.390625 0.5625 -4.171875 0.96875q-1.5625 0.21875 -2.21875 0.5q-0.65625 0.28125 -1.015625 0.828125q-0.34375 0.546875 -0.34375 1.21875q0 1.015625 0.765625 1.703125q0.78125 0.671875 2.265625 0.671875q1.46875 0 2.609375 -0.640625q1.15625 -0.65625 1.703125 -1.765625q0.40625 -0.859375 0.40625 -2.546875l0 -0.9375zm12.279663 5.265625l0.359375 2.25q-1.078125 0.234375 -1.921875 0.234375q-1.390625 0 -2.15625 -0.4375q-0.765625 -0.453125 -1.078125 -1.15625q-0.3125 -0.71875 -0.3125 -3.015625l0 -8.65625l-1.859375 0l0 -1.96875l1.859375 0l0 -3.734375l2.53125 -1.53125l0 5.265625l2.578125 0l0 1.96875l-2.578125 0l0 8.796875q0 1.09375 0.140625 1.40625q0.140625 0.3125 0.4375 0.5q0.3125 0.171875 0.875 0.171875q0.421875 0 1.125 -0.09375zm12.86705 -2.5625l2.640625 0.328125q-0.625 2.3125 -2.3125 3.59375q-1.6875 1.265625 -4.296875 1.265625q-3.3125 0 -5.25 -2.03125q-1.921875 -2.03125 -1.921875 -5.703125q0 -3.796875 1.953125 -5.890625q1.953125 -2.09375 5.0625 -2.09375q3.03125 0 4.9375 2.0625q1.90625 2.046875 1.90625 5.765625q0 0.21875 -0.015625 0.671875l-11.203125 0q0.140625 2.484375 1.390625 3.8125q1.265625 1.3125 3.140625 1.3125q1.40625 0 2.390625 -0.734375q1.0 -0.75 1.578125 -2.359375zm-8.359375 -4.125l8.390625 0q-0.171875 -1.890625 -0.96875 -2.84375q-1.21875 -1.46875 -3.15625 -1.46875q-1.75 0 -2.953125 1.171875q-1.1875 1.171875 -1.3125 3.140625zm22.943588 8.96875l0 -20.765625l2.734375 0l0 8.53125l10.796875 0l0 -8.53125l2.75 0l0 20.765625l-2.75 0l0 -9.78125l-10.796875 0l0 9.78125l-2.734375 0zm30.57045 -1.859375q-1.40625 1.203125 -2.71875 1.703125q-1.3125 0.5 -2.8125 0.5q-2.484375 0 -3.8125 -1.203125q-1.328125 -1.21875 -1.328125 -3.109375q0 -1.09375 0.5 -2.0q0.5 -0.921875 1.3125 -1.46875q0.828125 -0.5625 1.84375 -0.84375q0.75 -0.203125 2.265625 -0.390625q3.078125 -0.359375 4.546875 -0.875q0.015625 -0.515625 0.015625 -0.65625q0 -1.5625 -0.734375 -2.203125q-0.96875 -0.859375 -2.890625 -0.859375q-1.796875 0 -2.65625 0.625q-0.859375 0.625 -1.265625 2.234375l-2.5 -0.34375q0.34375 -1.59375 1.125 -2.578125q0.78125 -0.984375 2.25 -1.515625q1.46875 -0.53125 3.40625 -0.53125q1.9375 0 3.140625 0.453125q1.203125 0.453125 1.765625 1.140625q0.5625 0.6875 0.796875 1.734375q0.125 0.640625 0.125 2.34375l0 3.40625q0 3.546875 0.15625 4.5q0.171875 0.9375 0.640625 1.796875l-2.65625 0q-0.390625 -0.796875 -0.515625 -1.859375zm-0.203125 -5.6875q-1.390625 0.5625 -4.171875 0.96875q-1.5625 0.21875 -2.21875 0.5q-0.65625 0.28125 -1.015625 0.828125q-0.34375 0.546875 -0.34375 1.21875q0 1.015625 0.765625 1.703125q0.78125 0.671875 2.265625 0.671875q1.46875 0 2.609375 -0.640625q1.15625 -0.65625 1.703125 -1.765625q0.40625 -0.859375 0.40625 -2.546875l0 -0.9375zm6.685913 7.546875l0 -15.03125l2.28125 0l0 2.265625q0.890625 -1.59375 1.625 -2.09375q0.75 -0.515625 1.640625 -0.515625q1.28125 0 2.609375 0.8125l-0.875 2.375q-0.9375 -0.5625 -1.859375 -0.5625q-0.84375 0 -1.515625 0.515625q-0.65625 0.5 -0.9375 1.390625q-0.421875 1.359375 -0.421875 2.96875l0 7.875l-2.546875 0zm19.54776 0l0 -1.890625q-1.4375 2.234375 -4.203125 2.234375q-1.796875 0 -3.3125 -0.984375q-1.515625 -1.0 -2.34375 -2.78125q-0.828125 -1.78125 -0.828125 -4.078125q0 -2.25 0.75 -4.078125q0.765625 -1.84375 2.265625 -2.8125q1.5 -0.984375 3.34375 -0.984375q1.359375 0 2.421875 0.578125q1.0625 0.5625 1.734375 1.484375l0 -7.453125l2.53125 0l0 20.765625l-2.359375 0zm-8.0625 -7.5q0 2.890625 1.21875 4.328125q1.21875 1.421875 2.875 1.421875q1.671875 0 2.828125 -1.359375q1.171875 -1.375 1.171875 -4.1875q0 -3.078125 -1.1875 -4.515625q-1.1875 -1.453125 -2.921875 -1.453125q-1.703125 0 -2.84375 1.390625q-1.140625 1.375 -1.140625 4.375z" fill-rule="nonzero"></path><path fill="#434343" d="m64.32417 386.1806l0.359375 2.25q-1.078125 0.234375 -1.921875 0.234375q-1.390625 0 -2.15625 -0.4375q-0.765625 -0.453125 -1.078125 -1.15625q-0.3125 -0.71875 -0.3125 -3.015625l0 -8.65625l-1.859375 0l0 -1.96875l1.859375 0l0 -3.734375l2.53125 -1.53125l0 5.265625l2.578125 0l0 1.96875l-2.578125 0l0 8.796875q0 1.09375 0.140625 1.40625q0.140625 0.3125 0.4375 0.5q0.3125 0.171875 0.875 0.171875q0.421875 0 1.125 -0.09375zm2.5701752 2.28125l0 -20.765625l2.546875 0l0 7.453125q1.796875 -2.0625 4.515625 -2.0625q1.671875 0 2.890625 0.65625q1.234375 0.65625 1.765625 1.828125q0.53125 1.15625 0.53125 3.359375l0 9.53125l-2.546875 0l0 -9.53125q0 -1.90625 -0.828125 -2.78125q-0.828125 -0.875 -2.34375 -0.875q-1.125 0 -2.125 0.59375q-1.0 0.578125 -1.4375 1.59375q-0.421875 1.0 -0.421875 2.765625l0 8.234375l-2.546875 0zm26.607788 -4.84375l2.640625 0.328125q-0.625 2.3125 -2.3125 3.59375q-1.6875 1.265625 -4.296875 1.265625q-3.3125 0 -5.25 -2.03125q-1.921875 -2.03125 -1.921875 -5.703125q0 -3.796875 1.953125 -5.890625q1.953125 -2.09375 5.0625 -2.09375q3.03125 0 4.9375 2.0625q1.90625 2.046875 1.90625 5.765625q0 0.21875 -0.015625 0.671875l-11.203125 0q0.140625 2.484375 1.390625 3.8125q1.265625 1.3125 3.140625 1.3125q1.40625 0 2.390625 -0.734375q1.0 -0.75 1.578125 -2.359375zm-8.359375 -4.125l8.390625 0q-0.171875 -1.890625 -0.96875 -2.84375q-1.21875 -1.46875 -3.15625 -1.46875q-1.75 0 -2.953125 1.171875q-1.1875 1.171875 -1.3125 3.140625zm32.81859 4.125l2.640625 0.328125q-0.625 2.3125 -2.3125 3.59375q-1.6875 1.265625 -4.296875 1.265625q-3.3125 0 -5.25 -2.03125q-1.921875 -2.03125 -1.921875 -5.703125q0 -3.796875 1.953125 -5.890625q1.953125 -2.09375 5.0625 -2.09375q3.03125 0 4.9375 2.0625q1.90625 2.046875 1.90625 5.765625q0 0.21875 -0.015625 0.671875l-11.203125 0q0.140625 2.484375 1.390625 3.8125q1.265625 1.3125 3.140625 1.3125q1.40625 0 2.390625 -0.734375q1.0 -0.75 1.578125 -2.359375zm-8.359375 -4.125l8.390625 0q-0.171875 -1.890625 -0.96875 -2.84375q-1.21875 -1.46875 -3.15625 -1.46875q-1.75 0 -2.953125 1.171875q-1.1875 1.171875 -1.3125 3.140625zm14.326538 8.96875l0 -20.765625l2.546875 0l0 20.765625l-2.546875 0zm16.859528 -4.84375l2.640625 0.328125q-0.625 2.3125 -2.3125 3.59375q-1.6875 1.265625 -4.296875 1.265625q-3.3125 0 -5.25 -2.03125q-1.921875 -2.03125 -1.921875 -5.703125q0 -3.796875 1.953125 -5.890625q1.953125 -2.09375 5.0625 -2.09375q3.03125 0 4.9375 2.0625q1.90625 2.046875 1.90625 5.765625q0 0.21875 -0.015625 0.671875l-11.203125 0q0.140625 2.484375 1.390625 3.8125q1.265625 1.3125 3.140625 1.3125q1.40625 0 2.390625 -0.734375q1.0 -0.75 1.578125 -2.359375zm-8.359375 -4.125l8.390625 0q-0.171875 -1.890625 -0.96875 -2.84375q-1.21875 -1.46875 -3.15625 -1.46875q-1.75 0 -2.953125 1.171875q-1.1875 1.171875 -1.3125 3.140625zm14.373413 8.96875l0 -15.03125l2.28125 0l0 2.109375q0.71875 -1.109375 1.890625 -1.78125q1.171875 -0.671875 2.671875 -0.671875q1.671875 0 2.734375 0.703125q1.078125 0.6875 1.515625 1.921875q1.78125 -2.625 4.640625 -2.625q2.234375 0 3.4375 1.234375q1.203125 1.234375 1.203125 3.8125l0 10.328125l-2.53125 0l0 -9.46875q0 -1.53125 -0.25 -2.203125q-0.234375 -0.671875 -0.890625 -1.078125q-0.65625 -0.421875 -1.53125 -0.421875q-1.59375 0 -2.640625 1.0625q-1.046875 1.046875 -1.046875 3.375l0 8.734375l-2.546875 0l0 -9.765625q0 -1.703125 -0.625 -2.546875q-0.625 -0.859375 -2.03125 -0.859375q-1.078125 0 -2.0 0.578125q-0.90625 0.5625 -1.328125 1.65625q-0.40625 1.078125 -0.40625 3.140625l0 7.796875l-2.546875 0zm34.727432 -4.84375l2.640625 0.328125q-0.625 2.3125 -2.3125 3.59375q-1.6875 1.265625 -4.296875 1.265625q-3.3125 0 -5.25 -2.03125q-1.921875 -2.03125 -1.921875 -5.703125q0 -3.796875 1.953125 -5.890625q1.953125 -2.09375 5.0625 -2.09375q3.03125 0 4.9375 2.0625q1.90625 2.046875 1.90625 5.765625q0 0.21875 -0.015625 0.671875l-11.203125 0q0.140625 2.484375 1.390625 3.8125q1.265625 1.3125 3.140625 1.3125q1.40625 0 2.390625 -0.734375q1.0 -0.75 1.578125 -2.359375zm-8.359375 -4.125l8.390625 0q-0.171875 -1.890625 -0.96875 -2.84375q-1.21875 -1.46875 -3.15625 -1.46875q-1.75 0 -2.953125 1.171875q-1.1875 1.171875 -1.3125 3.140625zm14.373413 8.96875l0 -15.03125l2.296875 0l0 2.125q1.65625 -2.46875 4.78125 -2.46875q1.359375 0 2.5 0.484375q1.140625 0.484375 1.703125 1.28125q0.578125 0.796875 0.796875 1.890625q0.140625 0.703125 0.140625 2.46875l0 9.25l-2.546875 0l0 -9.140625q0 -1.5625 -0.296875 -2.328125q-0.296875 -0.78125 -1.0625 -1.234375q-0.75 -0.46875 -1.765625 -0.46875q-1.625 0 -2.8125 1.03125q-1.1875 1.03125 -1.1875 3.921875l0 8.21875l-2.546875 0zm21.889038 -2.28125l0.359375 2.25q-1.078125 0.234375 -1.921875 0.234375q-1.390625 0 -2.15625 -0.4375q-0.765625 -0.453125 -1.078125 -1.15625q-0.3125 -0.71875 -0.3125 -3.015625l0 -8.65625l-1.859375 0l0 -1.96875l1.859375 0l0 -3.734375l2.53125 -1.53125l0 5.265625l2.578125 0l0 1.96875l-2.578125 0l0 8.796875q0 1.09375 0.140625 1.40625q0.140625 0.3125 0.4375 0.5q0.3125 0.171875 0.875 0.171875q0.421875 0 1.125 -0.09375zm9.780975 -5.234375q0 -4.1875 2.3125 -6.1875q1.9375 -1.671875 4.734375 -1.671875q3.09375 0 5.0625 2.03125q1.96875 2.03125 1.96875 5.609375q0 2.90625 -0.875 4.578125q-0.859375 1.65625 -2.53125 2.578125q-1.65625 0.921875 -3.625 0.921875q-3.15625 0 -5.109375 -2.015625q-1.9375 -2.03125 -1.9375 -5.84375zm2.609375 0q0 2.890625 1.265625 4.328125q1.265625 1.4375 3.171875 1.4375q1.890625 0 3.15625 -1.4375q1.265625 -1.453125 1.265625 -4.421875q0 -2.78125 -1.28125 -4.21875q-1.265625 -1.4375 -3.140625 -1.4375q-1.90625 0 -3.171875 1.4375q-1.265625 1.421875 -1.265625 4.3125zm15.248413 7.515625l0 -13.0625l-2.25 0l0 -1.96875l2.25 0l0 -1.609375q0 -1.515625 0.28125 -2.25q0.359375 -0.984375 1.28125 -1.59375q0.9375 -0.625 2.609375 -0.625q1.078125 0 2.375 0.25l-0.375 2.21875q-0.796875 -0.140625 -1.515625 -0.140625q-1.15625 0 -1.640625 0.5q-0.46875 0.5 -0.46875 1.859375l0 1.390625l2.921875 0l0 1.96875l-2.921875 0l0 13.0625l-2.546875 0zm15.70285 -17.828125l0 -2.9375l2.546875 0l0 2.9375l-2.546875 0zm0 17.828125l0 -15.03125l2.546875 0l0 15.03125l-2.546875 0zm6.5001526 0l0 -15.03125l2.296875 0l0 2.125q1.65625 -2.46875 4.78125 -2.46875q1.359375 0 2.5 0.484375q1.140625 0.484375 1.703125 1.28125q0.578125 0.796875 0.796875 1.890625q0.140625 0.703125 0.140625 2.46875l0 9.25l-2.546875 0l0 -9.140625q0 -1.5625 -0.296875 -2.328125q-0.296875 -0.78125 -1.0625 -1.234375q-0.75 -0.46875 -1.765625 -0.46875q-1.625 0 -2.8125 1.03125q-1.1875 1.03125 -1.1875 3.921875l0 8.21875l-2.546875 0zm16.310913 0l0 -15.03125l2.296875 0l0 2.125q1.65625 -2.46875 4.78125 -2.46875q1.359375 0 2.5 0.484375q1.140625 0.484375 1.703125 1.28125q0.578125 0.796875 0.796875 1.890625q0.140625 0.703125 0.140625 2.46875l0 9.25l-2.546875 0l0 -9.140625q0 -1.5625 -0.296875 -2.328125q-0.296875 -0.78125 -1.0625 -1.234375q-0.75 -0.46875 -1.765625 -0.46875q-1.625 0 -2.8125 1.03125q-1.1875 1.03125 -1.1875 3.921875l0 8.21875l-2.546875 0zm15.373413 -7.515625q0 -4.1875 2.3125 -6.1875q1.9375 -1.671875 4.734375 -1.671875q3.09375 0 5.0625 2.03125q1.96875 2.03125 1.96875 5.609375q0 2.90625 -0.875 4.578125q-0.859375 1.65625 -2.53125 2.578125q-1.65625 0.921875 -3.625 0.921875q-3.15625 0 -5.109375 -2.015625q-1.9375 -2.03125 -1.9375 -5.84375zm2.609375 0q0 2.890625 1.265625 4.328125q1.265625 1.4375 3.171875 1.4375q1.890625 0 3.15625 -1.4375q1.265625 -1.453125 1.265625 -4.421875q0 -2.78125 -1.28125 -4.21875q-1.265625 -1.4375 -3.140625 -1.4375q-1.90625 0 -3.171875 1.4375q-1.265625 1.421875 -1.265625 4.3125zm18.826538 7.515625l-5.71875 -15.03125l2.6875 0l3.21875 9.0q0.53125 1.453125 0.96875 3.03125q0.34375 -1.1875 0.953125 -2.859375l3.34375 -9.171875l2.609375 0l-5.6875 15.03125l-2.375 0zm20.289062 -1.859375q-1.40625 1.203125 -2.71875 1.703125q-1.3125 0.5 -2.8125 0.5q-2.484375 0 -3.8125 -1.203125q-1.328125 -1.21875 -1.328125 -3.109375q0 -1.09375 0.5 -2.0q0.5 -0.921875 1.3125 -1.46875q0.828125 -0.5625 1.84375 -0.84375q0.75 -0.203125 2.265625 -0.390625q3.078125 -0.359375 4.546875 -0.875q0.015625 -0.515625 0.015625 -0.65625q0 -1.5625 -0.734375 -2.203125q-0.96875 -0.859375 -2.890625 -0.859375q-1.796875 0 -2.65625 0.625q-0.859375 0.625 -1.265625 2.234375l-2.5 -0.34375q0.34375 -1.59375 1.125 -2.578125q0.78125 -0.984375 2.25 -1.515625q1.46875 -0.53125 3.40625 -0.53125q1.9375 0 3.140625 0.453125q1.203125 0.453125 1.765625 1.140625q0.5625 0.6875 0.796875 1.734375q0.125 0.640625 0.125 2.34375l0 3.40625q0 3.546875 0.15625 4.5q0.171875 0.9375 0.640625 1.796875l-2.65625 0q-0.390625 -0.796875 -0.515625 -1.859375zm-0.203125 -5.6875q-1.390625 0.5625 -4.171875 0.96875q-1.5625 0.21875 -2.21875 0.5q-0.65625 0.28125 -1.015625 0.828125q-0.34375 0.546875 -0.34375 1.21875q0 1.015625 0.765625 1.703125q0.78125 0.671875 2.265625 0.671875q1.46875 0 2.609375 -0.640625q1.15625 -0.65625 1.703125 -1.765625q0.40625 -0.859375 0.40625 -2.546875l0 -0.9375zm12.279663 5.265625l0.359375 2.25q-1.078125 0.234375 -1.921875 0.234375q-1.390625 0 -2.15625 -0.4375q-0.765625 -0.453125 -1.078125 -1.15625q-0.3125 -0.71875 -0.3125 -3.015625l0 -8.65625l-1.859375 0l0 -1.96875l1.859375 0l0 -3.734375l2.53125 -1.53125l0 5.265625l2.578125 0l0 1.96875l-2.578125 0l0 8.796875q0 1.09375 0.140625 1.40625q0.140625 0.3125 0.4375 0.5q0.3125 0.171875 0.875 0.171875q0.421875 0 1.125 -0.09375zm2.5858154 -15.546875l0 -2.9375l2.546875 0l0 2.9375l-2.546875 0zm0 17.828125l0 -15.03125l2.546875 0l0 15.03125l-2.546875 0zm5.5626526 -7.515625q0 -4.1875 2.3125 -6.1875q1.9375 -1.671875 4.734375 -1.671875q3.09375 0 5.0625 2.03125q1.96875 2.03125 1.96875 5.609375q0 2.90625 -0.875 4.578125q-0.859375 1.65625 -2.53125 2.578125q-1.65625 0.921875 -3.625 0.921875q-3.15625 0 -5.109375 -2.015625q-1.9375 -2.03125 -1.9375 -5.84375zm2.609375 0q0 2.890625 1.265625 4.328125q1.265625 1.4375 3.171875 1.4375q1.890625 0 3.15625 -1.4375q1.265625 -1.453125 1.265625 -4.421875q0 -2.78125 -1.28125 -4.21875q-1.265625 -1.4375 -3.140625 -1.4375q-1.90625 0 -3.171875 1.4375q-1.265625 1.421875 -1.265625 4.3125zm14.639038 7.515625l0 -15.03125l2.296875 0l0 2.125q1.65625 -2.46875 4.78125 -2.46875q1.359375 0 2.5 0.484375q1.140625 0.484375 1.703125 1.28125q0.578125 0.796875 0.796875 1.890625q0.140625 0.703125 0.140625 2.46875l0 9.25l-2.546875 0l0 -9.140625q0 -1.5625 -0.296875 -2.328125q-0.296875 -0.78125 -1.0625 -1.234375q-0.75 -0.46875 -1.765625 -0.46875q-1.625 0 -2.8125 1.03125q-1.1875 1.03125 -1.1875 3.921875l0 8.21875l-2.546875 0z" fill-rule="nonzero"></path><path fill="#000000" fill-opacity="0.0" d="m345.39548 13.160384l102.42517 0l0 55.401573l-102.42517 0z" fill-rule="nonzero"></path><path fill="#434343" d="m355.5361 42.65101l2.359375 -0.3125q0.421875 2.015625 1.390625 2.90625q0.984375 0.890625 2.40625 0.890625q1.671875 0 2.8125 -1.15625q1.15625 -1.15625 1.15625 -2.875q0 -1.640625 -1.0625 -2.6875q-1.0625 -1.0625 -2.71875 -1.0625q-0.671875 0 -1.671875 0.25l0.265625 -2.078125q0.234375 0.03125 0.375 0.03125q1.515625 0 2.734375 -0.78125q1.21875 -0.796875 1.21875 -2.453125q0 -1.296875 -0.890625 -2.15625q-0.875 -0.859375 -2.28125 -0.859375q-1.375 0 -2.296875 0.875q-0.921875 0.859375 -1.1875 2.609375l-2.375 -0.421875q0.4375 -2.390625 1.96875 -3.703125q1.546875 -1.3125 3.84375 -1.3125q1.578125 0 2.90625 0.6875q1.34375 0.671875 2.046875 1.84375q0.703125 1.171875 0.703125 2.484375q0 1.265625 -0.671875 2.296875q-0.671875 1.015625 -2.0 1.625q1.71875 0.390625 2.671875 1.640625q0.953125 1.25 0.953125 3.125q0 2.53125 -1.859375 4.296875q-1.84375 1.75 -4.65625 1.75q-2.546875 0 -4.234375 -1.515625q-1.671875 -1.515625 -1.90625 -3.9375zm16.13742 5.109375l0 -2.703125l2.703125 0l0 2.703125l-2.703125 0zm6.0778503 -9.53125q0 -3.421875 0.703125 -5.515625q0.703125 -2.09375 2.09375 -3.21875q1.390625 -1.140625 3.5 -1.140625q1.5625 0 2.734375 0.625q1.171875 0.625 1.9375 1.8125q0.765625 1.171875 1.1875 2.875q0.4375 1.6875 0.4375 4.5625q0 3.40625 -0.703125 5.5q-0.6875 2.078125 -2.078125 3.21875q-1.390625 1.140625 -3.515625 1.140625q-2.796875 0 -4.390625 -2.0q-1.90625 -2.421875 -1.90625 -7.859375zm2.4375 0q0 4.765625 1.109375 6.34375q1.109375 1.5625 2.75 1.5625q1.640625 0 2.75 -1.578125q1.109375 -1.578125 1.109375 -6.328125q0 -4.765625 -1.109375 -6.328125q-1.109375 -1.578125 -2.78125 -1.578125q-1.625 0 -2.609375 1.375q-1.21875 1.765625 -1.21875 6.53125zm12.543671 -7.265625l0 -2.28125l12.515625 0l0 1.84375q-1.859375 1.96875 -3.671875 5.234375q-1.8125 3.25 -2.796875 6.6875q-0.703125 2.421875 -0.90625 5.3125l-2.4375 0q0.03125 -2.28125 0.890625 -5.5q0.859375 -3.234375 2.453125 -6.234375q1.609375 -3.0 3.421875 -5.0625l-9.46875 0z" fill-rule="nonzero"></path></g></svg>

